<?xml version="1.0" encoding="UTF-8" standalone="no"?>
<!-- Created with Inkscape (http://www.inkscape.org/) -->

<svg
   xmlns:dc="http://purl.org/dc/elements/1.1/"
   xmlns:cc="http://creativecommons.org/ns#"
   xmlns:rdf="http://www.w3.org/1999/02/22-rdf-syntax-ns#"
   xmlns:svg="http://www.w3.org/2000/svg"
   xmlns="http://www.w3.org/2000/svg"
   xmlns:sodipodi="http://sodipodi.sourceforge.net/DTD/sodipodi-0.dtd"
   xmlns:inkscape="http://www.inkscape.org/namespaces/inkscape"
   id="svg2"
   version="1.1"
   inkscape:version="0.91 r13725"
   width="769.20001"
   height="410.39999"
   viewBox="0 0 769.20001 410.39999"
   sodipodi:docname="API_Keys.svg">
  <metadata
     id="metadata8">
    <rdf:RDF>
      <cc:Work
         rdf:about="">
        <dc:format>image/svg+xml</dc:format>
        <dc:type
           rdf:resource="http://purl.org/dc/dcmitype/StillImage" />
        <dc:title></dc:title>
      </cc:Work>
    </rdf:RDF>
  </metadata>
  <defs
     id="defs6">
    <marker
       inkscape:isstock="true"
       style="overflow:visible;"
       id="marker5439"
       refX="0.0"
       refY="0.0"
       orient="auto"
       inkscape:stockid="Arrow2Lend">
      <path
         transform="scale(1.1) rotate(180) translate(1,0)"
         d="M 8.7185878,4.0337352 L -2.2072895,0.016013256 L 8.7185884,-4.0017078 C 6.9730900,-1.6296469 6.9831476,1.6157441 8.7185878,4.0337352 z "
         style="fill-rule:evenodd;stroke-width:0.625;stroke-linejoin:round;stroke:#000000;stroke-opacity:1;fill:#000000;fill-opacity:1"
         id="path5441" />
    </marker>
    <marker
       inkscape:stockid="Arrow2Lend"
       orient="auto"
       refY="0.0"
       refX="0.0"
       id="marker5282"
       style="overflow:visible;"
       inkscape:isstock="true">
      <path
         id="path5284"
         style="fill-rule:evenodd;stroke-width:0.625;stroke-linejoin:round;stroke:#000000;stroke-opacity:1;fill:#000000;fill-opacity:1"
         d="M 8.7185878,4.0337352 L -2.2072895,0.016013256 L 8.7185884,-4.0017078 C 6.9730900,-1.6296469 6.9831476,1.6157441 8.7185878,4.0337352 z "
         transform="scale(1.1) rotate(180) translate(1,0)" />
    </marker>
    <marker
       inkscape:stockid="Arrow2Lend"
       orient="auto"
       refY="0.0"
       refX="0.0"
       id="Arrow2Lend"
       style="overflow:visible;"
       inkscape:isstock="true"
       inkscape:collect="always">
      <path
         id="path4245"
         style="fill-rule:evenodd;stroke-width:0.625;stroke-linejoin:round;stroke:#000000;stroke-opacity:1;fill:#000000;fill-opacity:1"
         d="M 8.7185878,4.0337352 L -2.2072895,0.016013256 L 8.7185884,-4.0017078 C 6.9730900,-1.6296469 6.9831476,1.6157441 8.7185878,4.0337352 z "
         transform="scale(1.1) rotate(180) translate(1,0)" />
    </marker>
    <marker
       inkscape:isstock="true"
       style="overflow:visible;"
       id="marker4550"
       refX="0.0"
       refY="0.0"
       orient="auto"
       inkscape:stockid="Arrow1Lend">
      <path
         transform="scale(0.8) rotate(180) translate(12.5,0)"
         style="fill-rule:evenodd;stroke:#000000;stroke-width:1pt;stroke-opacity:1;fill:#000000;fill-opacity:1"
         d="M 0.0,0.0 L 5.0,-5.0 L -12.5,0.0 L 5.0,5.0 L 0.0,0.0 z "
         id="path4552" />
    </marker>
    <marker
       inkscape:isstock="true"
       style="overflow:visible"
       id="marker5439-7"
       refX="0"
       refY="0"
       orient="auto"
       inkscape:stockid="Arrow2Lend">
      <path
         inkscape:connector-curvature="0"
         transform="matrix(-1.1,0,0,-1.1,-1.1,0)"
         d="M 8.7185878,4.0337352 -2.2072895,0.01601326 8.7185884,-4.0017078 c -1.7454984,2.3720609 -1.7354408,5.6174519 -6e-7,8.035443 z"
         style="fill:#000000;fill-opacity:1;fill-rule:evenodd;stroke:#000000;stroke-width:0.625;stroke-linejoin:round;stroke-opacity:1"
         id="path5441-7" />
    </marker>
  </defs>
  <sodipodi:namedview
     pagecolor="#ffffff"
     bordercolor="#666666"
     borderopacity="1"
     objecttolerance="10"
     gridtolerance="10"
     guidetolerance="10"
     inkscape:pageopacity="0"
     inkscape:pageshadow="2"
     inkscape:window-width="2048"
     inkscape:window-height="1092"
     id="namedview4"
     showgrid="false"
     inkscape:zoom="1.2538919"
     inkscape:cx="192.24818"
     inkscape:cy="80.16173"
     inkscape:window-x="0"
     inkscape:window-y="31"
     inkscape:window-maximized="1"
     inkscape:current-layer="layer2" />
  <g
     inkscape:groupmode="layer"
     id="layer2"
     inkscape:label="Layer 2"
     style="display:inline">
    <path
       style="fill:#000000"
       d="m 277.1837,74.9521 c -1.09482,-0.33453 -1.94935,-1.34911 -1.94935,-2.31446 0,-0.5015 0.59929,-3.59121 0.9394,-4.8432 0.28952,-1.06572 0.93127,-2.99846 1.31821,-3.97 0.39231,-0.985 1.48393,-3.2089 2.00412,-4.0829 0.27778,-0.4667 0.50505,-0.86257 0.50505,-0.87969 0,-0.0707 1.42862,-2.16106 1.90775,-2.79144 1.95766,-2.57565 4.52243,-5.10038 7.1383,-7.02688 1.40174,-1.03234 3.97627,-2.59127 4.2794,-2.59127 0.0711,0 0.4536,0.30862 0.85001,0.68582 2.36301,2.24854 5.90758,4.16372 9.33344,5.04297 4.45329,1.14294 9.23451,0.89825 13.48782,-0.69029 2.51915,-0.94085 5.34338,-2.6692 7.11255,-4.35268 0.39641,-0.3772 0.77891,-0.68582 0.85002,-0.68582 0.17394,0 1.69382,0.85159 2.76269,1.54793 3.22173,2.09888 6.29312,4.96275 8.65501,8.07022 0.45476,0.59833 1.90774,2.71932 1.90774,2.78484 0,0.0135 0.25126,0.45812 0.55835,0.98804 1.57949,2.72555 2.96845,6.32414 3.61707,9.3713 0.31233,1.46731 0.58805,3.07164 0.58972,3.43136 0.004,0.77453 -0.60366,1.65515 -1.46089,2.11857 l -0.43334,0.23426 -31.85077,0.0182 c -17.51792,0.01 -31.97296,-0.0192 -32.1223,-0.0648 z m 29.48479,-25.20512 c -3.42024,-0.41405 -6.53695,-1.72941 -9.60272,-4.05269 -0.60059,-0.45513 -2.74696,-2.64709 -3.28895,-3.3588 -3.22011,-4.22847 -4.55086,-9.2953 -3.81275,-14.517 0.60167,-4.25644 2.44727,-7.94776 5.49028,-10.98089 2.93433,-2.92481 6.51426,-4.7736 10.54741,-5.44699 1.56163,-0.26074 4.72185,-0.26074 6.28348,0 6.78505,1.13287 12.47931,5.77821 14.9563,12.20125 1.51083,3.91773 1.69258,8.35712 0.50791,12.40598 -0.53485,1.82796 -1.3656,3.57337 -2.55241,5.36263 -0.62934,0.94882 -1.17887,1.59458 -2.30475,2.7084 -1.68524,1.66717 -1.60995,1.60185 -2.78237,2.41404 -3.91181,2.70988 -8.60499,3.84956 -13.44143,3.26407 z"
       id="path4149"
       inkscape:connector-curvature="0" />
    <g
       id="g7213"
       transform="translate(-4.1337894,0)">
      <path
         style="fill:#000000;stroke:#ffffff"
         d="m 21.21941,178.05708 c -1.09482,-0.33453 -1.94935,-1.34911 -1.94935,-2.31446 0,-0.5015 0.59929,-3.59121 0.9394,-4.8432 0.28952,-1.06572 0.93127,-2.99846 1.31821,-3.97 0.39231,-0.98499 1.48393,-3.2089 2.00412,-4.08289 0.27778,-0.46671 0.50505,-0.86258 0.50505,-0.8797 0,-0.0707 1.42862,-2.16106 1.90775,-2.79143 1.95766,-2.57565 4.52243,-5.10039 7.1383,-7.02689 1.40174,-1.03234 3.97627,-2.59127 4.2794,-2.59127 0.0711,0 0.4536,0.30862 0.85001,0.68582 2.36301,2.24854 5.90758,4.16372 9.33344,5.04297 4.45329,1.14295 9.23451,0.89825 13.48782,-0.69029 2.51915,-0.94085 5.343392,-2.6692 7.112562,-4.35268 0.39641,-0.3772 0.77891,-0.68582 0.85002,-0.68582 0.17394,0 1.69382,0.85159 2.76269,1.54793 3.22173,2.09888 6.29312,4.96275 8.65501,8.07023 0.45476,0.59832 1.90774,2.71931 1.90774,2.78483 0,0.0135 0.25126,0.45812 0.55835,0.98804 1.57949,2.72555 2.96845,6.32415 3.61707,9.3713 0.31233,1.46731 0.58805,3.07165 0.58972,3.43136 0.004,0.77453 -0.60366,1.65515 -1.46089,2.11857 l -0.43334,0.23426 -31.850782,0.0182 c -17.51792,0.01 -31.97296,-0.0192 -32.1223,-0.0648 z M 50.7042,152.85196 c -3.42024,-0.41405 -6.53695,-1.72941 -9.60272,-4.05269 -0.60059,-0.45513 -2.74696,-2.64709 -3.28895,-3.3588 -3.22011,-4.22847 -4.55086,-9.2953 -3.81275,-14.517 0.60167,-4.25644 2.44727,-7.94776 5.49028,-10.98089 2.93433,-2.92481 6.51426,-4.7736 10.54741,-5.44699 1.56163,-0.26074 4.72185,-0.26074 6.28348,0 6.78505,1.13287 12.479322,5.77821 14.956312,12.20125 1.51083,3.91773 1.69258,8.35712 0.50791,12.40598 -0.53485,1.82796 -1.3656,3.57337 -2.55241,5.36263 -0.62934,0.94882 -1.17887,1.59458 -2.30475,2.7084 -1.685252,1.66717 -1.609962,1.60186 -2.782382,2.41405 -3.91181,2.70987 -8.60499,3.84955 -13.44143,3.26406 z"
         id="path4195"
         inkscape:connector-curvature="0" />
      <path
         inkscape:connector-curvature="0"
         id="path4153"
         d="m 50.261787,184.68325 c -1.09482,-0.33453 -1.94935,-1.34911 -1.94935,-2.31446 0,-0.5015 0.59929,-3.59121 0.9394,-4.8432 0.28952,-1.06572 0.93127,-2.99846 1.31821,-3.97 0.39231,-0.98499 1.48393,-3.2089 2.00412,-4.08289 0.27778,-0.46671 0.50505,-0.86258 0.50505,-0.8797 0,-0.0707 1.42862,-2.16106 1.90775,-2.79143 1.95766,-2.57565 4.52243,-5.10039 7.1383,-7.02689 1.40174,-1.03234 3.97627,-2.59127 4.2794,-2.59127 0.0711,0 0.4536,0.30862 0.85001,0.68582 2.36301,2.24854 5.90758,4.16372 9.33344,5.04297 4.45329,1.14295 9.23451,0.89825 13.48782,-0.69029 2.51915,-0.94085 5.343387,-2.6692 7.112557,-4.35268 0.39641,-0.3772 0.77891,-0.68582 0.85002,-0.68582 0.17394,0 1.69382,0.85159 2.762686,1.54793 3.22173,2.09888 6.29312,4.96275 8.65501,8.07023 0.45476,0.59832 1.90774,2.71931 1.90774,2.78483 0,0.0135 0.25126,0.45812 0.55835,0.98804 1.57949,2.72555 2.96845,6.32415 3.61707,9.3713 0.31233,1.46731 0.58805,3.07165 0.58972,3.43136 0.004,0.77453 -0.60366,1.65515 -1.46089,2.11857 l -0.43334,0.23426 -31.850773,0.0182 c -17.51792,0.01 -31.97296,-0.0192 -32.1223,-0.0648 z m 29.48479,-25.20512 c -3.42024,-0.41405 -6.53695,-1.72941 -9.60272,-4.05269 -0.60059,-0.45513 -2.74696,-2.64709 -3.28895,-3.3588 -3.22011,-4.22847 -4.55086,-9.2953 -3.81275,-14.517 0.60167,-4.25644 2.44727,-7.94776 5.49028,-10.98089 2.93433,-2.92481 6.51426,-4.7736 10.54741,-5.44699 1.56163,-0.26074 4.72185,-0.26074 6.28348,0 6.78505,1.13287 12.479317,5.77821 14.956303,12.20125 1.51083,3.91773 1.69258,8.35712 0.50791,12.40598 -0.53485,1.82796 -1.365596,3.57337 -2.552406,5.36263 -0.62934,0.94882 -1.17887,1.59458 -2.30475,2.7084 -1.685247,1.66717 -1.609957,1.60186 -2.782377,2.41405 -3.91181,2.70987 -8.60499,3.84955 -13.44143,3.26406 z"
         style="fill:#000000;stroke:#ffffff" />
      <path
         style="fill:#000000;stroke:#ffffff"
         d="m 82.682163,193.8305 c -1.09482,-0.33453 -1.94935,-1.34911 -1.94935,-2.31446 0,-0.5015 0.59929,-3.59121 0.9394,-4.8432 0.28952,-1.06572 0.93127,-2.99846 1.31821,-3.97 0.39231,-0.98499 1.48393,-3.2089 2.00412,-4.08289 0.27778,-0.46671 0.50505,-0.86258 0.50505,-0.8797 0,-0.0707 1.42862,-2.16106 1.90775,-2.79143 1.95766,-2.57565 4.52243,-5.10039 7.1383,-7.02689 1.40174,-1.03234 3.976281,-2.59127 4.279411,-2.59127 0.0711,0 0.4536,0.30862 0.85001,0.68582 2.363006,2.24854 5.907576,4.16372 9.333436,5.04297 4.45329,1.14295 9.23451,0.89825 13.48782,-0.69029 2.51915,-0.94085 5.34338,-2.6692 7.11255,-4.35268 0.39641,-0.3772 0.77891,-0.68582 0.85002,-0.68582 0.17394,0 1.69382,0.85159 2.76269,1.54793 3.22173,2.09888 6.29312,4.96275 8.65501,8.07023 0.45476,0.59832 1.90774,2.71931 1.90774,2.78483 0,0.0135 0.25126,0.45812 0.55835,0.98804 1.57949,2.72555 2.96845,6.32415 3.61707,9.3713 0.31233,1.46731 0.58805,3.07165 0.58972,3.43136 0.004,0.77453 -0.60366,1.65515 -1.46089,2.11857 l -0.43334,0.23426 -31.85077,0.0182 c -17.517925,0.01 -31.972967,-0.0192 -32.122307,-0.0648 z m 29.484797,-25.20512 c -3.42024,-0.41405 -6.53695,-1.72941 -9.60272,-4.05269 -0.60059,-0.45513 -2.746956,-2.64709 -3.288946,-3.3588 -3.220121,-4.22847 -4.550871,-9.2953 -3.812761,-14.517 0.60167,-4.25644 2.447281,-7.94776 5.490287,-10.98089 2.93433,-2.92481 6.51426,-4.7736 10.54741,-5.44699 1.56163,-0.26074 4.72185,-0.26074 6.28348,0 6.78505,1.13287 12.47931,5.77821 14.9563,12.20125 1.51083,3.91773 1.69258,8.35712 0.50791,12.40598 -0.53485,1.82796 -1.3656,3.57337 -2.55241,5.36263 -0.62934,0.94882 -1.17887,1.59458 -2.30475,2.7084 -1.68524,1.66717 -1.60995,1.60186 -2.78237,2.41405 -3.91181,2.70987 -8.60499,3.84955 -13.44143,3.26406 z"
         id="path4151"
         inkscape:connector-curvature="0" />
    </g>
    <path
       style="fill:none;fill-rule:evenodd;stroke:#000000;stroke-width:1px;stroke-linecap:butt;stroke-linejoin:miter;stroke-opacity:1;marker-end:url(#marker5282)"
       d="m 312.0285,104.55226 0,115.63995"
       id="path4216"
       inkscape:connector-curvature="0" />
    <path
       inkscape:connector-curvature="0"
       id="path4548"
       d="m 309.43656,162.77098 -156.46823,0"
       style="fill:none;fill-rule:evenodd;stroke:#000000;stroke-width:1.16321278;stroke-linecap:butt;stroke-linejoin:miter;stroke-miterlimit:4;stroke-dasharray:4.6528511, 9.30570221;stroke-dashoffset:0;stroke-opacity:1;marker-end:url(#Arrow2Lend)" />
    <text
       xml:space="preserve"
       style="font-style:normal;font-weight:normal;font-size:19.39035225px;line-height:125%;font-family:sans-serif;letter-spacing:0px;word-spacing:0px;fill:#000000;fill-opacity:1;stroke:none;stroke-width:1px;stroke-linecap:butt;stroke-linejoin:miter;stroke-opacity:1"
       x="15.412894"
       y="227.65549"
       id="text5358"
       sodipodi:linespacing="125%"><tspan
         sodipodi:role="line"
         id="tspan5360"
         x="15.412894"
         y="227.65549"
         style="font-weight:bold">Other users</tspan></text>
    <text
       sodipodi:linespacing="125%"
       id="text5362"
       y="50.037537"
       x="191.98044"
       style="font-style:normal;font-weight:normal;font-size:19.39035225px;line-height:125%;font-family:sans-serif;letter-spacing:0px;word-spacing:0px;fill:#000000;fill-opacity:1;stroke:none;stroke-width:1px;stroke-linecap:butt;stroke-linejoin:miter;stroke-opacity:1"
       xml:space="preserve"><tspan
         style="font-weight:bold"
         y="50.037537"
         x="191.98044"
         id="tspan5364"
         sodipodi:role="line">Users</tspan></text>
    <text
       xml:space="preserve"
       style="font-style:normal;font-weight:normal;font-size:19.39035225px;line-height:125%;font-family:sans-serif;letter-spacing:0px;word-spacing:0px;fill:#000000;fill-opacity:1;stroke:none;stroke-width:1px;stroke-linecap:butt;stroke-linejoin:miter;stroke-opacity:1"
       x="180.39168"
       y="327.95578"
       id="text5366"
       sodipodi:linespacing="125%"><tspan
         sodipodi:role="line"
         id="tspan5368"
         x="180.39168"
         y="327.95578"
         style="font-weight:bold">Devices</tspan></text>
    <text
       xml:space="preserve"
       style="font-style:normal;font-variant:normal;font-weight:normal;font-stretch:normal;font-size:19.38999939px;line-height:125%;font-family:'Courier New';-inkscape-font-specification:'Courier New, Normal';text-align:start;letter-spacing:0px;word-spacing:0px;writing-mode:lr-tb;text-anchor:start;display:inline;fill:#000000;fill-opacity:1;stroke:none;stroke-width:1px;stroke-linecap:butt;stroke-linejoin:miter;stroke-opacity:1"
       x="498.28418"
       y="290.82358"
       id="text5366-3"
       sodipodi:linespacing="125%"><tspan
         sodipodi:role="line"
         id="tspan5368-6"
         x="498.28418"
         y="290.82358"
         style="font-style:normal;font-variant:normal;font-weight:normal;font-stretch:normal;font-size:19.38999939px;line-height:125%;font-family:'Courier New';-inkscape-font-specification:'Courier New, Normal';text-align:start;writing-mode:lr-tb;text-anchor:start">uses</tspan></text>
    <text
       sodipodi:linespacing="125%"
       id="text5388"
       y="28.440508"
       x="451.22583"
       style="font-style:normal;font-variant:normal;font-weight:normal;font-stretch:normal;font-size:19.38999939px;line-height:125%;font-family:'Courier New';-inkscape-font-specification:'Courier New, Normal';text-align:start;letter-spacing:0px;word-spacing:0px;writing-mode:lr-tb;text-anchor:start;display:inline;fill:#000000;fill-opacity:1;stroke:none;stroke-width:1px;stroke-linecap:butt;stroke-linejoin:miter;stroke-opacity:1"
       xml:space="preserve"><tspan
         style="font-style:normal;font-variant:normal;font-weight:normal;font-stretch:normal;font-size:19.38999939px;line-height:125%;font-family:'Courier New';-inkscape-font-specification:'Courier New, Normal';text-align:start;writing-mode:lr-tb;text-anchor:start"
         y="28.440508"
         x="451.22583"
         id="tspan5390"
         sodipodi:role="line">uses</tspan></text>
    <text
       xml:space="preserve"
       style="font-style:normal;font-variant:normal;font-weight:normal;font-stretch:normal;font-size:19.38999939px;line-height:125%;font-family:'Courier New';-inkscape-font-specification:'Courier New, Normal';text-align:start;letter-spacing:0px;word-spacing:0px;writing-mode:lr-tb;text-anchor:start;display:inline;fill:#000000;fill-opacity:1;stroke:none;stroke-width:1px;stroke-linecap:butt;stroke-linejoin:miter;stroke-opacity:1"
       x="177.99646"
       y="145.67549"
       id="text5392"
       sodipodi:linespacing="125%"><tspan
         sodipodi:role="line"
         id="tspan5394"
         x="177.99646"
         y="145.67549"
         style="font-style:normal;font-variant:normal;font-weight:normal;font-stretch:normal;font-size:19.38999939px;line-height:125%;font-family:'Courier New';-inkscape-font-specification:'Courier New, Normal';text-align:start;writing-mode:lr-tb;text-anchor:start">delegate</tspan><tspan
         sodipodi:role="line"
         x="177.99646"
         y="169.91299"
         style="font-style:normal;font-variant:normal;font-weight:normal;font-stretch:normal;font-size:19.38999939px;line-height:125%;font-family:'Courier New';-inkscape-font-specification:'Courier New, Normal';text-align:start;writing-mode:lr-tb;text-anchor:start"
         id="tspan5396" /><tspan
         sodipodi:role="line"
         x="177.99646"
         y="194.15048"
         style="font-style:normal;font-variant:normal;font-weight:normal;font-stretch:normal;font-size:19.38999939px;line-height:125%;font-family:'Courier New';-inkscape-font-specification:'Courier New, Normal';text-align:start;writing-mode:lr-tb;text-anchor:start"
         id="tspan5398">access to</tspan></text>
    <text
       xml:space="preserve"
       style="font-style:normal;font-weight:normal;font-size:19.39035225px;line-height:125%;font-family:sans-serif;letter-spacing:0px;word-spacing:0px;fill:#00ccff;fill-opacity:1;stroke:none;stroke-width:1px;stroke-linecap:butt;stroke-linejoin:miter;stroke-opacity:1"
       x="715.28259"
       y="42.526947"
       id="text5400"
       sodipodi:linespacing="125%"><tspan
         sodipodi:role="line"
         id="tspan5402"
         x="715.28259"
         y="42.526947"
         style="font-weight:bold;text-align:center;text-anchor:middle;fill:#00ccff">User</tspan><tspan
         sodipodi:role="line"
         x="715.28259"
         y="66.764885"
         style="font-weight:bold;text-align:center;text-anchor:middle;fill:#00ccff"
         id="tspan5404">Key</tspan></text>
    <text
       sodipodi:linespacing="125%"
       id="text5406"
       y="298.70935"
       x="715.70868"
       style="font-style:normal;font-weight:normal;font-size:19.39035225px;line-height:125%;font-family:sans-serif;letter-spacing:0px;word-spacing:0px;fill:#00ccff;fill-opacity:1;stroke:none;stroke-width:1px;stroke-linecap:butt;stroke-linejoin:miter;stroke-opacity:1"
       xml:space="preserve"><tspan
         style="font-weight:bold;text-align:center;text-anchor:middle;fill:#00ccff"
         y="298.70935"
         x="715.70868"
         id="tspan5408"
         sodipodi:role="line">Device</tspan><tspan
         id="tspan5410"
         style="font-weight:bold;text-align:center;text-anchor:middle;fill:#00ccff"
         y="322.9473"
         x="715.70868"
         sodipodi:role="line">Key</tspan></text>
    <path
       style="fill:none;fill-rule:evenodd;stroke:#000000;stroke-width:1.46649766;stroke-linecap:butt;stroke-linejoin:miter;stroke-miterlimit:4;stroke-dasharray:5.86599087, 11.73198175;stroke-dashoffset:0;stroke-opacity:1;marker-end:url(#marker5439)"
       d="m 348.35998,43.143443 248.69706,0"
       id="path5437"
       inkscape:connector-curvature="0" />
    <path
       style="display:inline;fill:none;fill-rule:evenodd;stroke:#000000;stroke-width:1.13583982;stroke-linecap:butt;stroke-linejoin:miter;stroke-miterlimit:4;stroke-dasharray:4.54335951, 9.08671902;stroke-dashoffset:0;stroke-opacity:1;marker-end:url(#marker5439-7)"
       d="m 445.44782,301.96352 149.19082,0"
       id="path5437-6"
       inkscape:connector-curvature="0" />
    <path
       style="opacity:1;fill:#00ccff;fill-opacity:1;stroke:none;stroke-width:1.16321278;stroke-linecap:round;stroke-linejoin:round;stroke-miterlimit:4;stroke-dasharray:4.6528511, 9.30570221;stroke-dashoffset:0;stroke-opacity:1"
       d="m 662.24979,331.96997 -1.45592,-1.36274 -0.0466,-1.96756 c -0.0256,-1.08216 -0.0664,-1.98732 -0.0905,-2.01146 -0.0241,-0.0241 -0.75941,0.0426 -1.63394,0.14833 -0.87453,0.10573 -1.68175,0.19206 -1.7938,0.19184 -0.42589,-7.6e-4 -0.68931,-0.22455 -1.88597,-1.60173 -0.65306,-0.75157 -1.24952,-1.43612 -1.32545,-1.52122 -0.13206,-0.14797 -0.1347,-0.21193 -0.0605,-1.46603 0.0427,-0.72122 0.0975,-1.65726 0.12174,-2.08008 l 0.0442,-0.76877 -0.24024,-0.002 c -0.13214,-10e-4 -0.95404,0.0851 -1.82649,0.19163 -1.38356,0.16894 -1.60224,0.18062 -1.71125,0.0915 -0.0687,-0.0562 -0.56662,-0.60695 -1.10636,-1.22382 l -0.98136,-1.12158 -0.0442,-0.66626 c -0.17176,-2.58664 -0.24485,-3.43674 -0.30002,-3.48939 -0.0347,-0.0331 -0.6263,0.0169 -1.31462,0.11115 -1.76712,0.24201 -1.74482,0.24376 -2.1275,-0.16646 -0.91171,-0.97732 -1.73255,-1.89934 -3.43788,-3.86174 -1.03393,-1.18981 -1.90583,-2.16329 -1.93756,-2.16329 -0.0317,0 -0.47243,0.0637 -0.97937,0.14153 -2.222,0.34116 -6.26884,0.38261 -7.87169,0.0806 -4.23326,-0.79754 -7.4097,-2.59546 -9.62069,-5.44546 -4.39137,-5.66053 -4.21733,-14.47066 0.3899,-19.73817 1.37689,-1.57419 3.7382,-3.05732 6.0806,-3.81915 1.88239,-0.61223 2.6686,-0.70669 5.5287,-0.66428 2.37775,0.0353 2.74934,0.0905 4.4999,0.66944 5.22937,1.72936 8.62462,5.79388 9.4553,11.31916 0.17767,1.18168 0.17493,4.72693 -0.005,6.04985 -0.108,0.79565 -0.45935,2.67721 -0.58875,3.15306 -0.0767,0.28213 0.71964,1.19215 9.19204,10.504 10.86455,11.94103 13.96212,15.35215 16.36358,18.01998 l 2.44301,2.71395 -0.1907,0.25387 c -0.10488,0.13963 -0.67199,0.84118 -1.26022,1.559 l -1.06955,1.30512 -3.87856,0 -3.87856,0 -1.45594,-1.36273 z m -35.95322,-41.47394 c 1.03644,-0.19218 1.98924,-0.95314 2.47549,-1.97706 0.22436,-0.47243 0.26697,-0.64284 0.29208,-1.16802 0.0528,-1.10435 -0.28338,-1.9499 -1.0627,-2.67292 -0.67994,-0.63081 -1.38485,-0.8995 -2.36811,-0.90263 -1.29405,-0.004 -2.40925,0.69862 -2.99419,1.88683 -0.61357,1.24635 -0.32342,2.94789 0.66133,3.87827 0.87646,0.82805 1.90849,1.1572 2.9961,0.95553 z"
       id="path7134"
       inkscape:connector-curvature="0" />
    <path
       inkscape:connector-curvature="0"
       id="path7136"
       d="m 662.24979,76.08579 -1.45592,-1.36274 -0.0466,-1.96756 c -0.0256,-1.08216 -0.0664,-1.98732 -0.0905,-2.01146 -0.0241,-0.0241 -0.75941,0.0426 -1.63394,0.14833 -0.87453,0.10573 -1.68175,0.19206 -1.7938,0.19184 -0.42589,-7.6e-4 -0.68931,-0.22455 -1.88597,-1.60173 -0.65306,-0.75157 -1.24952,-1.43612 -1.32545,-1.52122 -0.13206,-0.14797 -0.1347,-0.21193 -0.0605,-1.46603 0.0427,-0.72122 0.0975,-1.65726 0.12174,-2.08008 l 0.0442,-0.76877 -0.24024,-0.002 c -0.13214,-0.001 -0.95404,0.0851 -1.82649,0.19163 -1.38356,0.16894 -1.60224,0.18062 -1.71125,0.0915 -0.0687,-0.0562 -0.56662,-0.60695 -1.10636,-1.22382 l -0.98136,-1.12158 -0.0442,-0.66626 c -0.17176,-2.58664 -0.24485,-3.43674 -0.30002,-3.48939 -0.0347,-0.0331 -0.6263,0.0169 -1.31462,0.11115 -1.76712,0.24201 -1.74482,0.24376 -2.1275,-0.16646 -0.91171,-0.97732 -1.73255,-1.89934 -3.43788,-3.86174 -1.03393,-1.18981 -1.90583,-2.16329 -1.93756,-2.16329 -0.0317,0 -0.47243,0.0637 -0.97937,0.14153 -2.222,0.34116 -6.26884,0.38261 -7.87169,0.0806 -4.23326,-0.79754 -7.4097,-2.59546 -9.62069,-5.44546 -4.39137,-5.66053 -4.21733,-14.47066 0.3899,-19.73817 1.37689,-1.57419 3.7382,-3.05732 6.0806,-3.81915 1.88239,-0.61223 2.6686,-0.70669 5.5287,-0.66428 2.37775,0.0353 2.74934,0.0905 4.4999,0.66944 5.22937,1.72936 8.62462,5.79388 9.4553,11.31916 0.17767,1.18168 0.17493,4.72693 -0.005,6.04985 -0.108,0.79565 -0.45935,2.67721 -0.58875,3.15306 -0.0767,0.28213 0.71964,1.19215 9.19204,10.504 10.86455,11.94103 13.96212,15.35215 16.36358,18.01998 l 2.44301,2.71395 -0.1907,0.25387 c -0.10488,0.13963 -0.67199,0.84118 -1.26022,1.559 l -1.06955,1.30512 -3.87856,0 -3.87856,0 -1.45594,-1.36273 z M 626.29657,34.61185 c 1.03644,-0.19218 1.98924,-0.95314 2.47549,-1.97706 0.22436,-0.47243 0.26697,-0.64284 0.29208,-1.16802 0.0528,-1.10435 -0.28338,-1.9499 -1.0627,-2.67292 -0.67994,-0.63081 -1.38485,-0.8995 -2.36811,-0.90263 -1.29405,-0.004 -2.40925,0.69862 -2.99419,1.88683 -0.61357,1.24635 -0.32342,2.94789 0.66133,3.87827 0.87646,0.82805 1.90849,1.1572 2.9961,0.95553 z"
       style="opacity:1;fill:#00ccff;fill-opacity:1;stroke:none;stroke-width:1.16321278;stroke-linecap:round;stroke-linejoin:round;stroke-miterlimit:4;stroke-dasharray:4.6528511, 9.30570221;stroke-dashoffset:0;stroke-opacity:1" />
    <g
       id="g7218">
      <path
         inkscape:connector-curvature="0"
         id="path7149"
         d="m 303.86459,300.69022 c -0.72229,-0.22931 -1.04791,-0.44217 -1.59931,-1.04549 -0.34742,-0.38013 -0.57893,-0.75295 -0.67672,-1.08978 -0.12611,-0.4344 -0.14864,-5.1213 -0.14864,-30.93133 l 0,-30.41935 0.27645,-0.58194 c 0.35166,-0.74024 0.94073,-1.32931 1.68097,-1.68096 l 0.58194,-0.27646 15.18322,0 15.18323,0 0.58193,0.27646 c 0.74025,0.35165 1.32931,0.94072 1.68097,1.68096 l 0.27645,0.58194 0.0273,30.25454 c 0.0244,26.93351 0.01,30.32424 -0.1353,30.8895 -0.24767,0.96674 -0.86947,1.69494 -1.84947,2.16595 l -0.58193,0.27968 -15.02452,0.0167 c -12.05091,0.0134 -15.11003,-0.0104 -15.45662,-0.12045 z m 16.06841,-3.48066 c 1.28596,-0.55023 1.53474,-2.27026 0.4643,-3.21011 -1.18533,-1.04074 -3.13856,-0.15848 -3.13915,1.41793 0,1.11227 0.78905,1.92373 1.8813,1.93371 0.24919,0.002 0.60629,-0.0614 0.79355,-0.14153 z m 14.67724,-29.90371 0,-22.85455 -15.42129,0.0268 -15.42129,0.0268 -0.0267,22.82774 -0.0267,22.82775 15.44798,0 15.44798,0 0,-22.85455 z m -10.47483,-27.1919 0,-0.31742 -4.97291,0 -4.9729,0 0,0.31742 0,0.31742 4.9729,0 4.97291,0 0,-0.31742 z"
         style="fill:#000000" />
      <path
         inkscape:connector-curvature="0"
         id="path7162"
         d="m 363.15666,345.46324 0,-1.02344 -2.01275,-8.2e-4 c -2.39249,-8.2e-4 -2.94884,-0.12233 -3.31568,-0.72396 -0.25191,-0.41314 -0.26531,-0.73137 -0.26531,-6.30278 0,-5.57141 0.0133,-5.88964 0.26531,-6.30279 0.17827,-0.29238 0.4355,-0.48237 0.78412,-0.57919 0.35558,-0.0987 8.53261,-0.14431 25.98953,-0.14482 l 25.47072,-8.2e-4 0.0849,-1.26223 c 0.0467,-0.69424 0.26556,-5.46118 0.48627,-10.5932 0.43115,-10.02546 0.41345,-9.87085 1.15182,-10.05616 0.18128,-0.0455 0.45846,-0.0418 0.61598,0.008 0.66913,0.21237 0.66017,0.1282 1.09699,10.31174 0.22681,5.28717 0.44783,10.05822 0.49118,10.60235 l 0.0788,0.98932 5.89016,8.2e-4 c 3.71328,5.5e-4 6.08188,0.0541 6.40896,0.14483 0.3486,0.0968 0.60584,0.28682 0.7841,0.57918 0.25193,0.41315 0.26532,0.73138 0.26532,6.30279 0,5.57143 -0.0133,5.88965 -0.26532,6.3028 -0.36494,0.59852 -0.92371,0.7231 -3.24743,0.72401 l -1.94453,6.8e-4 0,1.02343 0,1.02343 -4.23018,0 -4.23018,0 0,-1.02343 0,-1.02343 -21.01447,0 -21.01447,0 0,1.02343 0,1.02343 -4.16196,0 -4.16196,0 0,-1.02343 z m 41.56827,-6.35349 c 0.58736,-0.28433 1.14296,-1.1095 1.14296,-1.69751 0,-0.14024 -0.12651,-0.51629 -0.28113,-0.83569 -0.58439,-1.2072 -2.11609,-1.4658 -3.06448,-0.51739 -0.98484,0.98482 -0.71699,2.50307 0.5425,3.07519 0.70865,0.32189 0.95187,0.31828 1.66015,-0.0246 z m 5.1829,0.0207 c 0.69041,-0.31354 1.22786,-1.27202 1.09256,-1.94849 -0.24227,-1.21135 -1.34106,-1.94628 -2.42453,-1.62166 -0.711,0.21302 -1.14108,0.64522 -1.35606,1.36279 -0.14878,0.49658 -0.13714,0.64812 0.093,1.21068 0.21019,0.51388 0.38512,0.70474 0.87079,0.95008 0.73369,0.37064 0.99517,0.37771 1.72429,0.0466 z m 5.24328,-0.0466 c 0.48568,-0.24535 0.66061,-0.43621 0.8708,-0.95008 0.2301,-0.56257 0.24173,-0.7141 0.0929,-1.21068 -0.6099,-2.03572 -3.38068,-1.86232 -3.77739,0.23638 -0.0539,0.28547 0.0125,0.64151 0.19839,1.06159 0.22124,0.50014 0.40187,0.68756 0.86543,0.89795 0.75582,0.34304 1.01137,0.3379 1.74983,-0.0352 z m 5.13916,0.0414 c 0.40499,-0.18388 0.65393,-0.42041 0.85286,-0.81032 0.34694,-0.68006 0.34875,-1.0129 0.009,-1.76013 -0.20255,-0.44626 -0.40361,-0.64733 -0.84987,-0.84987 -0.72682,-0.32988 -0.98456,-0.33153 -1.69066,-0.0105 -0.4168,0.18928 -0.63521,0.40922 -0.85286,0.85883 -0.36288,0.74962 -0.3645,0.96576 -0.0126,1.69243 0.19982,0.41278 0.44368,0.65918 0.85285,0.86172 0.70233,0.34764 0.95906,0.3504 1.69078,0.0181 z m -16.06213,-23.64847 c -1.54948,-1.8962 -2.46553,-4.67072 -2.25427,-6.82779 0.20993,-2.14344 1.06055,-4.1458 2.35319,-5.53942 l 0.79031,-0.85206 0.38429,0.49013 0.38428,0.49011 -0.60108,0.66855 c -0.7447,0.82829 -1.50776,2.26161 -1.79336,3.36861 -0.27515,1.06646 -0.27789,3.02977 -0.006,4.07476 0.30976,1.18928 0.98555,2.46676 1.74371,3.29633 l 0.66849,0.73142 -0.36314,0.47611 c -0.19974,0.26186 -0.41865,0.47611 -0.48647,0.47611 -0.0679,0 -0.43692,-0.38379 -0.82024,-0.85286 z m 14.51084,0.54583 c -0.50395,-0.5598 -0.49559,-0.62945 0.16368,-1.36271 0.77164,-0.85825 1.4983,-2.25911 1.77031,-3.41281 0.23855,-1.0117 0.264,-2.66938 0.0565,-3.67814 -0.21458,-1.04307 -1.09904,-2.79297 -1.82971,-3.61998 l -0.63042,-0.71356 0.38335,-0.4874 0.38336,-0.4874 0.70858,0.75543 c 1.54012,1.64193 2.37885,3.81698 2.39772,6.21781 0.0136,1.71509 -0.22577,2.75875 -0.98535,4.2984 -0.50317,1.01989 -1.79632,2.79739 -2.03513,2.79739 -0.0586,0 -0.23086,-0.13816 -0.38289,-0.30703 z m -12.74237,-2.18333 c -2.17666,-2.70361 -2.14429,-6.64382 0.0745,-9.06981 l 0.59702,-0.65279 0.44706,0.44045 0.44708,0.44044 -0.35314,0.3783 c -0.78135,0.83706 -1.34965,2.09396 -1.53088,3.38584 -0.18626,1.32783 0.43509,3.26281 1.38564,4.31495 l 0.47077,0.52108 -0.38991,0.46913 c -0.21444,0.25802 -0.43072,0.47355 -0.48062,0.47897 -0.05,0.006 -0.35028,-0.31253 -0.66752,-0.70656 z m 11.0114,0.22694 -0.39054,-0.48945 0.40225,-0.43163 c 1.8818,-2.0193 1.91807,-5.32483 0.0831,-7.56428 l -0.4931,-0.60178 0.42618,-0.42618 0.42617,-0.42618 0.48926,0.47258 c 0.62637,0.60499 1.52204,2.41902 1.7156,3.47465 0.27783,1.5152 -0.0834,3.54371 -0.85904,4.82393 -0.3696,0.61003 -1.20599,1.65781 -1.32335,1.65781 -0.0473,-1e-5 -0.26164,-0.22026 -0.47644,-0.48947 z m -9.1459,-2.05415 c -1.2239,-1.66871 -1.1716,-3.90534 0.12998,-5.5582 l 0.40026,-0.50829 0.43994,0.50287 0.43994,0.50287 -0.32588,0.38728 c -0.78569,0.93374 -0.83872,2.62122 -0.11877,3.77937 l 0.42394,0.68198 -0.45151,0.43763 -0.45153,0.43762 -0.48637,-0.66313 z m 7.44251,0.17747 -0.43855,-0.45249 0.28056,-0.35664 c 0.91942,-1.16886 0.91199,-3.15481 -0.0155,-4.14207 l -0.27574,-0.29351 0.42786,-0.48731 0.42787,-0.4873 0.40133,0.45709 c 0.71292,0.81196 1.00885,1.65417 1.01113,2.87763 0.002,0.95969 -0.0522,1.20467 -0.43808,1.98856 -0.24208,0.49172 -0.55314,0.99629 -0.69123,1.12127 -0.2368,0.2143 -0.27606,0.20149 -0.68966,-0.22523 z"
         style="fill:#000000" />
      <path
         inkscape:connector-curvature="0"
         id="path7175"
         d="m 303.02711,406.64261 c -0.64603,-0.28099 -0.70068,-0.5405 -0.70068,-3.32732 l 0,-2.5021 -0.84073,0 c -0.78128,0 -0.86367,-0.0229 -1.16508,-0.32434 -0.30141,-0.30141 -0.32434,-0.3838 -0.32434,-1.16508 l 0,-0.84073 -2.5021,0 c -2.81821,0 -3.05055,-0.0514 -3.33749,-0.73812 -0.19124,-0.45771 -0.0685,-0.98855 0.30717,-1.32896 0.20622,-0.18685 0.49138,-0.21314 2.85303,-0.26307 l 2.62391,-0.0555 0,-1.16508 0,-1.16508 -2.62391,-0.0555 c -2.36165,-0.0499 -2.64681,-0.0762 -2.85303,-0.26307 -0.37571,-0.34041 -0.49841,-0.87126 -0.30717,-1.32896 0.28694,-0.68673 0.51928,-0.73812 3.33749,-0.73812 l 2.5021,0 0,-1.16507 0,-1.16508 -2.45208,0 c -2.75574,0 -3.05383,-0.0637 -3.36473,-0.71884 -0.21752,-0.45839 -0.21752,-0.54504 0,-1.00343 0.3109,-0.65516 0.60899,-0.71884 3.36473,-0.71884 l 2.45208,0 0,-1.16508 0,-1.16507 -2.5021,0 c -2.81821,0 -3.05055,-0.0514 -3.33749,-0.73813 -0.19124,-0.4577 -0.0685,-0.98854 0.30717,-1.32895 0.20622,-0.18685 0.49138,-0.21314 2.85303,-0.26308 l 2.62391,-0.0555 0,-1.16507 0,-1.16508 -2.62391,-0.0555 c -2.36165,-0.0499 -2.64681,-0.0762 -2.85303,-0.26308 -0.37571,-0.34041 -0.49841,-0.87125 -0.30717,-1.32895 0.28694,-0.68674 0.51928,-0.73812 3.33749,-0.73812 l 2.5021,0 0,-1.16508 0,-1.16507 -2.31628,0 c -2.63474,0 -2.90198,-0.0334 -3.27857,-0.41001 -0.37376,-0.37376 -0.45356,-0.82419 -0.22963,-1.29609 0.31962,-0.67355 0.60163,-0.73502 3.3724,-0.73502 l 2.45208,0 0,-1.16507 0,-1.16508 -2.5021,0 c -2.81821,0 -3.05055,-0.0514 -3.33749,-0.73812 -0.19124,-0.4577 -0.0685,-0.98854 0.30717,-1.32895 0.20622,-0.18685 0.49138,-0.21315 2.85303,-0.26308 l 2.62391,-0.0555 0,-1.16508 0,-1.16507 -2.62391,-0.0555 c -2.36165,-0.0499 -2.64681,-0.0762 -2.85303,-0.26308 -0.37571,-0.34041 -0.49841,-0.87125 -0.30717,-1.32895 0.28694,-0.68674 0.51928,-0.73812 3.33749,-0.73812 l 2.5021,0 0,-0.84074 c 0,-0.78128 0.0229,-0.86366 0.32434,-1.16507 0.30141,-0.30141 0.3838,-0.32435 1.16508,-0.32435 l 0.84073,0 0,-2.5021 c 0,-2.81821 0.0514,-3.05055 0.73812,-3.33748 0.4577,-0.19124 0.98855,-0.0685 1.32896,0.30716 0.18684,0.20622 0.21314,0.49138 0.26307,2.85303 l 0.0555,2.62391 1.16508,0 1.16508,0 0.0555,-2.62391 c 0.0499,-2.36165 0.0762,-2.64681 0.26308,-2.85303 0.34041,-0.37571 0.87125,-0.4984 1.32895,-0.30716 0.68674,0.28693 0.73813,0.51927 0.73813,3.33748 l 0,2.5021 1.16507,0 1.16508,0 0,-2.45208 c 0,-2.77076 0.0615,-3.05278 0.73502,-3.3724 0.47189,-0.22393 0.92233,-0.14412 1.29608,0.22964 0.37659,0.37658 0.41001,0.64382 0.41001,3.27856 l 0,2.31628 1.16508,0 1.16507,0 0,-2.5021 c 0,-2.81821 0.0514,-3.05055 0.73813,-3.33748 0.4577,-0.19124 0.98854,-0.0685 1.32895,0.30716 0.18685,0.20622 0.21314,0.49138 0.26308,2.85303 l 0.0555,2.62391 1.16507,0 1.16508,0 0.0555,-2.62391 c 0.0499,-2.36165 0.0762,-2.64681 0.26307,-2.85303 0.34041,-0.37571 0.87126,-0.4984 1.32895,-0.30716 0.68674,0.28693 0.73813,0.51927 0.73813,3.33748 l 0,2.5021 1.16508,0 1.16507,0 0,-2.45208 c 0,-2.75573 0.0637,-3.05383 0.71884,-3.36472 0.4584,-0.21752 0.54505,-0.21752 1.00343,0 0.65516,0.31089 0.71884,0.60899 0.71884,3.36472 l 0,2.45208 1.16508,0 1.16508,0 0,-2.5021 c 0,-2.81821 0.0514,-3.05055 0.73812,-3.33748 0.4577,-0.19124 0.98854,-0.0685 1.32895,0.30716 0.18685,0.20622 0.21315,0.49138 0.26308,2.85303 l 0.0555,2.62391 1.16507,0 1.16508,0 0.0555,-2.62391 c 0.0499,-2.36165 0.0762,-2.64681 0.26307,-2.85303 0.34042,-0.37571 0.87126,-0.4984 1.32896,-0.30716 0.68674,0.28693 0.73812,0.51927 0.73812,3.33748 l 0,2.5021 0.84073,0 c 0.78129,0 0.86367,0.0229 1.16508,0.32435 0.30141,0.30141 0.32434,0.38379 0.32434,1.16507 l 0,0.84074 2.50211,0 c 2.81821,0 3.05055,0.0514 3.33748,0.73812 0.19124,0.4577 0.0686,0.98854 -0.30716,1.32895 -0.20622,0.18685 -0.49139,0.21314 -2.85304,0.26308 l -2.62391,0.0555 0,1.16507 0,1.16508 2.62391,0.0555 c 2.36165,0.0499 2.64682,0.0762 2.85304,0.26308 0.37571,0.34041 0.4984,0.87125 0.30716,1.32895 -0.28693,0.68674 -0.51927,0.73812 -3.33748,0.73812 l -2.50211,0 0,1.16508 0,1.16507 2.45209,0 c 2.75492,0 3.05389,0.0638 3.36432,0.71799 0.22869,0.48194 0.12826,0.95467 -0.28751,1.35327 l -0.32792,0.31438 -2.60049,0.0351 -2.60049,0.0351 0,1.1577 0,1.1577 2.50211,0 c 2.81821,0 3.05055,0.0514 3.33748,0.73812 0.19124,0.4577 0.0686,0.98854 -0.30716,1.32895 -0.20622,0.18685 -0.49139,0.21315 -2.85304,0.26308 l -2.62391,0.0555 0,1.16508 0,1.16507 2.62391,0.0555 c 2.36165,0.0499 2.64682,0.0762 2.85304,0.26308 0.37571,0.34041 0.4984,0.87125 0.30716,1.32895 -0.28693,0.68674 -0.51927,0.73813 -3.33748,0.73813 l -2.50211,0 0,1.16507 0,1.16508 2.45209,0 c 1.98167,0 2.52139,0.0329 2.8134,0.17146 0.7376,0.35001 0.88207,1.2773 0.29113,1.8686 l -0.34536,0.34557 -2.60562,0.0351 -2.60564,0.0351 0,1.15769 0,1.1577 2.50211,0 c 2.81821,0 3.05055,0.0514 3.33748,0.73812 0.19124,0.4577 0.0686,0.98855 -0.30716,1.32896 -0.20622,0.18684 -0.49139,0.21314 -2.85304,0.26307 l -2.62391,0.0555 0,1.16508 0,1.16508 2.62391,0.0555 c 2.36165,0.0499 2.64682,0.0762 2.85304,0.26307 0.37571,0.34041 0.4984,0.87125 0.30716,1.32896 -0.28693,0.68673 -0.51927,0.73812 -3.33748,0.73812 l -2.50211,0 0,0.84073 c 0,0.78128 -0.0229,0.86367 -0.32434,1.16508 -0.30141,0.30141 -0.38379,0.32434 -1.16508,0.32434 l -0.84073,0 0,2.5021 c 0,2.81821 -0.0514,3.05055 -0.73812,3.33749 -0.4577,0.19124 -0.98854,0.0685 -1.32896,-0.30717 -0.18684,-0.20622 -0.21314,-0.49138 -0.26307,-2.85303 l -0.0555,-2.62391 -1.16508,0 -1.16507,0 -0.0555,2.62391 c -0.0499,2.36165 -0.0762,2.64681 -0.26308,2.85303 -0.34041,0.37571 -0.87125,0.49841 -1.32895,0.30717 -0.68674,-0.28694 -0.73812,-0.51928 -0.73812,-3.33749 l 0,-2.5021 -1.1577,0 -1.1577,0 -0.0351,2.60563 -0.0351,2.60563 -0.34556,0.34535 c -0.5913,0.59094 -1.51859,0.44647 -1.8686,-0.29112 -0.13857,-0.29201 -0.17147,-0.83173 -0.17147,-2.81341 l 0,-2.45208 -1.16507,0 -1.16508,0 0,2.5021 c 0,2.81821 -0.0514,3.05055 -0.73813,3.33749 -0.45769,0.19124 -0.98854,0.0685 -1.32895,-0.30717 -0.18684,-0.20622 -0.21314,-0.49138 -0.26307,-2.85303 l -0.0555,-2.62391 -1.16508,0 -1.16507,0 -0.0555,2.62391 c -0.0499,2.36165 -0.0762,2.64681 -0.26308,2.85303 -0.34041,0.37571 -0.87125,0.49841 -1.32895,0.30717 -0.68674,-0.28694 -0.73813,-0.51928 -0.73813,-3.33749 l 0,-2.5021 -1.15769,0 -1.1577,0 -0.0351,2.60049 -0.0351,2.60048 -0.31438,0.32792 c -0.3986,0.41577 -0.87132,0.51621 -1.35326,0.28751 -0.65419,-0.31043 -0.71799,-0.6094 -0.71799,-3.36432 l 0,-2.45208 -1.16508,0 -1.16507,0 0,2.5021 c 0,2.81821 -0.0514,3.05055 -0.73813,3.33749 -0.4577,0.19124 -0.98854,0.0685 -1.32895,-0.30717 -0.18685,-0.20622 -0.21314,-0.49138 -0.26308,-2.85303 l -0.0555,-2.62391 -1.16508,0 -1.16508,0 -0.0555,2.61853 c -0.0607,2.8638 -0.0655,2.88435 -0.74541,3.16855 -0.4309,0.18012 -0.43999,0.17999 -0.88406,-0.0131 z m 29.71079,-13.25518 0.32435,-0.32434 0,-12.33359 0,-12.33359 -0.32435,-0.32435 -0.32433,-0.32434 -12.3336,0 -12.33358,0 -0.32435,0.32434 -0.32435,0.32435 0,12.33359 0,12.33359 0.32435,0.32434 0.32435,0.32434 12.33358,0 12.3336,0 0.32433,-0.32434 z m -23.31005,-12.65793 0,-10.65213 10.65212,0 10.65213,0 0,10.65213 0,10.65212 -10.65213,0 -10.65212,0 0,-10.65212 z"
         style="fill:#000000" />
    </g>
  </g>
</svg>
